Coordinates
version=1
nRows=9
nColumns=24
inDegrees=yes

Units are S.I. units (second, meters, Newtons, ...)
Angles are in degrees.

endheader
time	pelvis_tilt	pelvis_list	pelvis_rotation	pelvis_tx	pelvis_ty	pelvis_tz	hip_flexion_r	hip_adduction_r	hip_rotation_r	knee_angle_r	ankle_angle_r	subtalar_angle_r	mtp_angle_r	hip_flexion_l	hip_adduction_l	hip_rotation_l	knee_angle_l	ankle_angle_l	subtalar_angle_l	mtp_angle_l	lumbar_extension	lumbar_bending	lumbar_rotation
      1.12000000	     15.95455962	      5.95577223	      2.25432035	     -0.51735222	      0.91457434	      0.30660196	      9.73277559	     -4.74786003	     -2.43411681	     -8.86186766	      9.17777291	     -0.38556402	     46.00155778	    -32.45602388	      5.75223714	     -2.20149131	    -13.69936690	     31.13017198	     11.72235052	     20.45980771	    -34.15526117	     -4.12053495	     -0.89946591
      1.12500000	     16.09184915	      5.87864213	      2.41197482	     -0.50951649	      0.91384534	      0.30687509	      9.72961462	     -4.64488257	     -2.21928225	     -9.87054890	      9.42226564	     -0.63617953	     45.98073173	    -32.77737234	      5.48211202	     -2.10719606	    -14.38553960	     31.11098807	     11.79736447	     20.54087430	    -34.22722983	     -3.87918531	     -1.01289139
      1.13000000	     16.22253404	      5.78944692	      2.51734124	     -0.50165355	      0.91312980	      0.30739207	      9.66969391	     -4.48327568	     -1.89837645	    -10.82534995	      9.53318272	     -1.03231872	     45.42461442	    -33.01375839	      5.19027809	     -2.25282523	    -15.21062818	     30.96633011	     12.11311134	     22.04472582	    -34.29016794	     -3.67942186	     -1.08140751
      1.13500000	     16.23456551	      5.65754693	      2.67469425	     -0.49368085	      0.91231424	      0.30762693	      9.84596556	     -4.29978847	     -2.05956542	    -12.06141914	      9.15806083	     -1.34861545	     46.09493508	    -33.11730212	      4.87237087	     -2.22750197	    -16.04315780	     30.74876822	     12.18610258	     23.65109685	    -34.20997795	     -3.39723966	     -1.11594486
      1.14000000	     16.32841447	      5.49539832	      2.82557105	     -0.48581516	      0.91166959	      0.30795498	      9.94057289	     -4.05436528	     -2.35252596	    -13.29667017	      7.59029928	     -2.53332688	     46.78736242	    -33.29177616	      4.52965069	     -2.13920523	    -16.89546333	     30.54956576	     12.14771751	     24.43842101	    -34.23164333	     -3.08297903	     -1.16387984
      1.14500000	     16.33133125	      5.30514757	      2.95381306	     -0.47823897	      0.91109074	      0.30810942	     10.23589193	     -3.82277923	     -2.68684462	    -14.64965439	      5.67240007	     -3.64629491	     47.15375870	    -33.26079826	      4.20448029	     -2.01809154	    -17.89004160	     30.22879155	     12.04719870	     26.57734425	    -34.18864305	     -2.73006776	     -1.12347629
      1.15000000	     16.23968596	      5.13069580	      3.04236416	     -0.47071445	      0.91064588	      0.30831301	     10.65855063	     -3.64639757	     -2.90227634	    -16.06184577	      4.72052011	     -4.16650793	     45.77622986	    -33.09670736	      3.95085236	     -1.75227837	    -18.91568796	     29.76644543	     11.70439273	     28.26450816	    -34.04779081	     -2.43649663	     -0.97808808
      1.15500000	     16.05524619	      4.98895069	      3.09414485	     -0.46323721	      0.91014247	      0.30864136	     11.21759452	     -3.52101090	     -2.98986294	    -17.52141957	      4.89917708	     -3.99161492	     45.90997474	    -32.75861862	      3.76664215	     -1.42825943	    -20.08367926	     29.41785485	     11.38068560	     28.65787521	    -33.81974407	     -2.19100637	     -0.90934122
      1.16000000	     16.04933728	      4.76833899	      3.11857359	     -0.45563327	      0.90997104	      0.30894661	     11.51507971	     -3.32137666	     -3.12129692	    -18.86423173	      5.58105466	     -3.08887134	     47.05239986	    -32.60651617	      3.51768496	     -1.19855582	    -21.21543976	     28.64217284	     10.83445125	     31.90149372	    -33.76560279	     -1.87435365	     -0.67892925
